<svg id="svg" version="1.1" xmlns="http://www.w3.org/2000/svg" xmlns:xlink="http://www.w3.org/1999/xlink" width="400" height="481.76100628930817" viewBox="0, 0, 400,481.76100628930817"><g id="svgg"><path id="path0" d="M0.000 0.353 C 0.000 0.546,0.630 1.186,1.400 1.773 C 2.170 2.360,2.800 3.112,2.800 3.444 C 2.800 3.776,2.980 3.936,3.200 3.800 C 3.420 3.664,3.600 3.839,3.600 4.189 C 3.600 4.539,4.005 4.989,4.500 5.188 C 4.995 5.387,5.277 5.561,5.127 5.575 C 4.677 5.616,7.456 8.400,7.947 8.400 C 8.196 8.400,8.356 8.535,8.302 8.700 C 8.249 8.865,9.419 10.224,10.902 11.720 C 12.386 13.216,13.600 14.622,13.600 14.844 C 13.600 15.066,13.771 15.142,13.980 15.012 C 14.189 14.883,14.575 15.188,14.838 15.689 C 15.429 16.816,18.017 19.393,18.583 19.418 C 18.812 19.428,18.955 19.653,18.900 19.918 C 18.845 20.183,18.991 20.400,19.224 20.400 C 19.457 20.400,19.548 20.561,19.426 20.758 C 19.202 21.121,20.323 21.789,20.930 21.654 C 21.111 21.613,21.145 21.765,21.006 21.990 C 20.867 22.216,20.933 22.400,21.154 22.400 C 21.374 22.400,21.874 22.940,22.264 23.600 C 22.654 24.260,23.114 24.800,23.286 24.800 C 23.459 24.800,23.960 25.160,24.400 25.600 C 24.840 26.040,25.101 26.400,24.979 26.400 C 24.858 26.400,25.263 26.846,25.879 27.391 C 27.632 28.941,29.770 31.273,30.782 32.739 C 31.206 33.353,31.449 33.449,31.676 33.091 C 31.894 32.748,31.990 32.811,31.994 33.300 C 31.997 33.685,32.210 34.000,32.467 34.000 C 32.723 34.000,32.835 34.098,32.715 34.218 C 32.444 34.489,34.852 36.976,35.400 36.990 C 35.620 36.995,35.978 37.407,36.196 37.904 C 36.414 38.401,36.906 38.907,37.288 39.028 C 37.671 39.149,37.942 39.384,37.892 39.549 C 37.841 39.713,39.870 41.927,42.400 44.467 C 44.930 47.007,48.620 50.839,50.600 52.983 C 55.073 57.826,54.927 57.679,55.951 58.388 C 56.418 58.712,56.800 59.207,56.800 59.488 C 56.800 59.770,56.940 60.000,57.111 60.000 C 57.504 60.000,59.438 61.864,61.000 63.747 C 63.192 66.391,69.133 72.400,69.556 72.400 C 69.785 72.400,70.142 72.715,70.351 73.100 C 70.559 73.485,72.591 75.732,74.865 78.094 C 77.139 80.455,79.897 83.365,80.994 84.560 C 82.090 85.754,83.125 86.646,83.294 86.542 C 83.462 86.438,83.600 86.537,83.600 86.763 C 83.600 87.262,85.453 89.386,88.400 92.265 C 89.610 93.446,90.780 94.598,91.000 94.823 C 91.220 95.049,92.165 96.011,93.100 96.960 C 94.035 97.910,94.800 98.806,94.800 98.951 C 94.800 99.249,96.982 101.395,98.510 102.600 C 99.069 103.040,99.587 103.580,99.663 103.800 C 99.738 104.020,99.935 104.155,100.100 104.100 C 100.265 104.045,100.400 104.198,100.400 104.440 C 100.400 104.682,101.885 106.381,103.700 108.216 C 105.515 110.050,107.480 112.058,108.067 112.676 C 108.653 113.294,109.590 114.160,110.148 114.600 C 110.706 115.040,111.171 115.609,111.182 115.864 C 111.192 116.120,111.740 116.783,112.400 117.339 C 113.060 117.894,113.600 118.540,113.600 118.774 C 113.600 119.008,113.767 119.200,113.972 119.200 C 114.176 119.200,115.011 119.830,115.827 120.600 C 116.644 121.370,117.197 122.000,117.056 122.000 C 116.915 122.000,117.160 122.360,117.600 122.800 C 118.040 123.240,118.580 123.600,118.800 123.600 C 119.020 123.600,119.200 123.794,119.200 124.032 C 119.200 124.635,122.646 128.020,122.951 127.716 C 123.088 127.579,123.200 127.681,123.200 127.942 C 123.200 128.203,124.190 129.407,125.400 130.617 C 126.610 131.827,127.600 132.973,127.600 133.163 C 127.600 133.353,128.095 133.825,128.700 134.212 C 129.671 134.834,130.943 136.132,134.001 139.619 C 134.474 140.159,134.729 140.347,134.569 140.038 C 134.376 139.669,134.434 139.574,134.738 139.762 C 134.992 139.919,135.200 140.219,135.200 140.428 C 135.200 140.638,136.505 142.149,138.100 143.785 C 139.695 145.422,142.440 148.305,144.200 150.191 C 149.362 155.724,150.442 156.800,150.832 156.800 C 151.034 156.800,151.200 156.997,151.200 157.237 C 151.200 157.477,153.360 159.801,156.000 162.400 C 158.640 164.999,160.800 167.210,160.800 167.313 C 160.800 167.416,161.610 168.345,162.600 169.378 C 163.590 170.412,164.400 171.424,164.400 171.629 C 164.400 171.833,164.670 172.000,165.000 172.000 C 165.330 172.000,165.600 172.191,165.600 172.424 C 165.600 172.657,165.780 172.736,166.000 172.600 C 166.220 172.464,166.400 172.557,166.400 172.806 C 166.400 173.055,167.296 174.146,168.391 175.229 C 169.487 176.313,170.321 177.200,170.246 177.200 C 170.171 177.200,172.042 179.173,174.403 181.585 C 176.764 183.997,178.616 186.051,178.518 186.149 C 178.420 186.247,178.716 186.446,179.176 186.592 C 179.635 186.738,179.929 186.992,179.828 187.155 C 179.726 187.319,180.177 187.768,180.829 188.153 C 181.481 188.538,181.903 189.034,181.767 189.254 C 181.631 189.474,181.896 189.752,182.355 189.872 C 182.815 189.993,183.107 190.226,183.005 190.392 C 182.903 190.558,183.217 191.032,183.703 191.447 C 184.575 192.191,184.579 192.190,183.993 191.400 C 183.444 190.659,183.452 190.641,184.100 191.149 C 184.485 191.451,184.800 191.864,184.800 192.067 C 184.800 192.414,186.461 194.162,196.910 204.809 C 199.280 207.224,201.118 209.200,200.994 209.200 C 200.870 209.200,201.001 209.451,201.284 209.758 C 201.568 210.065,201.890 210.264,202.000 210.200 C 202.110 210.136,202.432 210.335,202.716 210.642 C 202.999 210.949,203.130 211.200,203.006 211.200 C 202.882 211.200,204.090 212.508,205.690 214.106 C 207.291 215.704,209.590 218.098,210.800 219.427 C 212.010 220.756,213.315 221.963,213.700 222.109 C 214.085 222.255,214.400 222.577,214.400 222.824 C 214.400 223.071,216.785 225.677,219.700 228.615 C 222.615 231.552,225.270 234.286,225.600 234.689 C 227.813 237.391,228.338 237.928,228.556 237.711 C 228.690 237.577,228.800 237.677,228.800 237.933 C 228.800 238.190,229.070 238.400,229.400 238.400 C 229.730 238.400,230.000 238.660,230.000 238.977 C 230.000 239.295,230.378 239.819,230.839 240.142 L 231.678 240.730 230.843 241.177 C 230.384 241.423,230.027 241.754,230.051 241.912 C 230.174 242.725,229.920 243.128,229.160 243.326 C 228.625 243.466,228.429 243.724,228.622 244.035 C 228.799 244.323,228.757 244.421,228.519 244.274 C 228.107 244.019,227.797 244.281,225.436 246.880 C 224.697 247.693,223.982 248.248,223.846 248.113 C 223.711 247.977,223.600 248.078,223.600 248.336 C 223.600 248.594,223.150 249.197,222.600 249.675 C 222.050 250.153,221.600 250.693,221.600 250.875 C 221.600 251.057,218.225 254.607,214.100 258.764 C 205.982 266.945,200.801 272.401,200.799 272.768 C 200.798 272.896,200.257 273.360,199.597 273.800 C 198.936 274.240,198.294 274.915,198.171 275.300 C 198.047 275.685,197.785 276.000,197.588 276.000 C 197.390 276.000,196.323 277.089,195.215 278.421 C 194.107 279.752,193.200 280.757,193.200 280.654 C 193.200 280.551,192.568 281.080,191.796 281.830 C 191.025 282.579,190.414 283.239,190.440 283.296 C 190.466 283.353,188.488 285.410,186.044 287.867 C 183.600 290.324,181.600 292.540,181.600 292.791 C 181.600 293.042,181.433 293.144,181.229 293.018 C 181.025 292.892,180.744 293.147,180.604 293.586 C 180.465 294.025,180.137 294.342,179.876 294.292 C 179.614 294.241,179.445 294.425,179.500 294.700 C 179.555 294.975,179.465 295.155,179.300 295.100 C 179.135 295.045,178.968 295.173,178.930 295.384 C 178.891 295.596,178.563 295.873,178.200 296.000 C 177.837 296.127,177.528 296.404,177.513 296.616 C 177.497 296.827,176.935 297.405,176.264 297.900 C 175.594 298.395,175.215 298.806,175.422 298.814 C 175.630 298.822,175.350 299.086,174.800 299.400 C 174.250 299.714,173.950 299.978,174.134 299.986 C 174.318 299.994,172.563 301.912,170.234 304.250 C 167.905 306.587,166.000 308.645,166.000 308.823 C 166.000 309.001,165.640 309.260,165.200 309.400 C 164.760 309.540,164.400 309.868,164.400 310.131 C 164.400 310.393,164.033 310.837,163.584 311.117 C 163.136 311.397,162.860 311.773,162.971 311.953 C 163.082 312.132,162.732 312.515,162.193 312.804 C 161.654 313.092,161.108 313.659,160.980 314.064 C 160.851 314.469,160.533 314.801,160.273 314.803 C 160.013 314.805,159.080 315.635,158.200 316.648 C 157.320 317.661,154.415 320.709,151.744 323.422 C 149.073 326.135,146.995 328.462,147.126 328.593 C 147.258 328.724,146.968 328.936,146.483 329.063 C 145.997 329.189,145.600 329.542,145.600 329.847 C 145.600 330.151,145.330 330.400,145.000 330.400 C 144.670 330.400,144.400 330.572,144.400 330.781 C 144.400 330.991,143.590 331.961,142.600 332.937 C 141.610 333.913,140.800 334.900,140.800 335.129 C 140.800 335.358,140.426 335.665,139.970 335.810 C 139.513 335.954,139.232 336.166,139.346 336.279 C 139.638 336.571,138.663 337.554,138.300 337.334 C 138.135 337.235,138.000 337.321,138.000 337.526 C 138.000 338.047,133.329 342.800,132.817 342.800 C 132.588 342.800,132.445 342.955,132.500 343.145 C 132.555 343.334,131.430 344.662,130.000 346.094 C 124.731 351.373,120.000 356.460,120.000 356.848 C 120.000 357.068,119.833 357.144,119.629 357.018 C 119.425 356.892,119.138 357.165,118.992 357.624 C 118.846 358.084,118.631 358.365,118.515 358.248 C 118.298 358.031,116.000 360.152,116.000 360.569 C 116.000 360.852,114.478 362.400,114.200 362.400 C 114.090 362.400,113.640 362.760,113.200 363.200 C 112.760 363.640,112.503 364.000,112.628 364.000 C 112.754 364.000,112.189 364.630,111.373 365.400 C 110.556 366.170,109.733 366.800,109.544 366.800 C 109.355 366.800,109.200 367.051,109.200 367.357 C 109.200 367.664,108.930 368.018,108.600 368.145 C 108.270 368.271,108.000 368.561,108.000 368.788 C 108.000 369.322,104.834 372.400,104.285 372.400 C 104.055 372.400,103.975 372.508,104.108 372.641 C 104.240 372.773,103.482 373.735,102.422 374.779 C 101.362 375.822,100.280 377.077,100.017 377.569 C 99.740 378.087,99.301 378.371,98.973 378.245 C 98.611 378.106,98.320 378.378,98.164 379.001 C 98.030 379.536,97.720 379.934,97.475 379.887 C 97.230 379.839,96.844 380.207,96.618 380.704 C 96.392 381.201,95.877 381.712,95.473 381.840 C 95.070 381.968,94.840 382.173,94.963 382.296 C 95.189 382.522,94.479 383.228,92.625 384.620 C 92.061 385.043,91.600 385.562,91.600 385.772 C 91.600 385.983,90.070 387.651,88.200 389.479 C 86.330 391.307,84.800 392.993,84.800 393.225 C 84.800 393.457,84.665 393.583,84.500 393.504 C 84.335 393.426,83.716 393.865,83.126 394.481 C 82.535 395.096,82.265 395.611,82.526 395.625 C 82.786 395.639,82.583 395.818,82.074 396.022 C 81.565 396.226,81.261 396.575,81.398 396.797 C 81.535 397.018,81.367 397.200,81.024 397.200 C 80.681 397.200,80.400 397.481,80.400 397.824 C 80.400 398.167,80.246 398.352,80.058 398.236 C 79.869 398.119,78.564 399.295,77.158 400.849 C 75.751 402.402,72.744 405.547,70.476 407.837 C 68.208 410.126,66.475 412.000,66.625 412.000 C 66.775 412.000,66.676 412.268,66.404 412.596 C 66.132 412.923,65.795 413.125,65.655 413.044 C 65.319 412.849,62.440 415.907,62.708 416.175 C 62.822 416.288,62.612 416.497,62.241 416.640 C 61.171 417.050,58.932 419.395,59.107 419.921 C 59.195 420.185,59.111 420.400,58.921 420.400 C 58.416 420.400,54.400 424.308,54.400 424.800 C 54.400 425.029,53.950 425.422,53.400 425.673 C 52.850 425.923,52.400 426.299,52.400 426.507 C 52.400 426.987,48.450 430.717,48.203 430.469 C 48.102 430.368,47.892 430.626,47.737 431.043 C 47.581 431.459,46.580 432.700,45.512 433.800 C 37.747 441.796,36.000 443.671,36.000 444.013 C 36.000 444.226,35.770 444.400,35.489 444.400 C 34.976 444.400,33.419 445.955,33.407 446.480 C 33.403 446.634,33.149 446.994,32.841 447.280 C 32.380 447.710,32.338 447.702,32.603 447.238 C 32.818 446.862,32.771 446.771,32.462 446.962 C 32.208 447.119,32.000 447.517,32.000 447.847 C 32.000 448.177,31.865 448.377,31.700 448.291 C 31.535 448.205,30.660 448.914,29.756 449.867 C 28.851 450.820,28.184 451.600,28.272 451.600 C 28.360 451.600,28.199 451.851,27.916 452.158 C 27.632 452.465,27.265 452.634,27.100 452.534 C 26.935 452.435,26.800 452.556,26.800 452.804 C 26.800 453.053,26.080 454.009,25.201 454.928 C 24.321 455.848,22.825 457.410,21.876 458.400 C 20.928 459.390,19.667 460.604,19.076 461.097 C 18.484 461.591,18.000 462.254,18.000 462.570 C 18.000 462.887,17.685 463.247,17.300 463.371 C 16.915 463.494,15.364 464.856,13.854 466.398 C 12.344 467.939,10.938 469.200,10.731 469.200 C 10.523 469.200,10.458 469.371,10.587 469.579 C 10.716 469.788,8.972 471.829,6.711 474.115 C 4.450 476.400,2.400 478.615,2.156 479.035 C 1.912 479.456,1.462 479.808,1.156 479.818 C 0.850 479.828,0.645 480.053,0.700 480.318 C 0.755 480.583,0.620 480.800,0.400 480.800 C 0.180 480.800,0.000 480.980,0.000 481.200 C 0.000 481.465,28.310 481.600,84.131 481.600 L 168.262 481.600 170.331 479.361 C 171.469 478.130,172.400 476.930,172.400 476.695 C 172.400 476.459,172.499 476.366,172.620 476.487 C 172.916 476.782,175.600 474.228,175.600 473.653 C 175.600 473.404,175.744 473.245,175.919 473.300 C 176.095 473.355,177.310 472.240,178.619 470.823 C 179.929 469.406,182.383 466.859,184.073 465.163 C 185.764 463.468,187.039 461.972,186.907 461.840 C 186.775 461.708,186.871 461.600,187.120 461.600 C 187.369 461.600,188.344 460.765,189.286 459.745 C 191.068 457.816,195.590 453.139,204.420 444.092 C 207.269 441.173,209.600 438.598,209.600 438.369 C 209.600 438.140,209.767 438.056,209.971 438.182 C 210.175 438.308,210.456 438.053,210.596 437.614 C 210.735 437.175,211.063 436.858,211.324 436.908 C 211.586 436.959,211.755 436.775,211.700 436.500 C 211.645 436.225,211.881 436.000,212.224 436.000 C 212.567 436.000,212.736 435.820,212.600 435.600 C 212.464 435.380,212.603 435.200,212.909 435.200 C 213.215 435.200,213.706 434.750,214.000 434.200 C 214.294 433.650,214.671 433.200,214.837 433.200 C 215.210 433.200,217.599 430.840,217.602 430.469 C 217.603 430.321,218.188 429.619,218.902 428.909 C 220.414 427.406,222.330 425.447,223.234 424.479 C 223.583 424.105,224.258 423.535,224.735 423.211 C 225.212 422.887,225.705 422.299,225.830 421.905 C 225.955 421.511,226.225 421.292,226.429 421.418 C 226.633 421.544,226.800 421.406,226.800 421.112 C 226.800 420.817,227.175 420.312,227.634 419.988 C 228.092 419.665,228.727 418.905,229.044 418.300 C 229.376 417.666,229.955 417.200,230.410 417.200 C 230.845 417.200,231.200 417.033,231.200 416.829 C 231.200 416.624,231.992 415.630,232.961 414.620 C 233.929 413.609,234.828 412.505,234.958 412.166 C 235.088 411.827,235.376 411.661,235.597 411.798 C 235.819 411.935,236.000 411.867,236.000 411.646 C 236.000 411.425,238.250 408.957,241.000 406.160 C 243.750 403.364,246.000 400.914,246.000 400.715 C 246.000 400.516,246.180 400.464,246.400 400.600 C 246.620 400.736,246.800 400.556,246.800 400.200 C 246.800 399.844,246.948 399.644,247.129 399.756 C 247.499 399.985,248.800 398.608,248.800 397.987 C 248.800 397.765,249.250 397.378,249.800 397.127 C 250.350 396.877,250.800 396.430,250.800 396.136 C 250.800 395.841,250.979 395.600,251.197 395.600 C 251.416 395.600,252.136 394.853,252.797 393.940 C 253.459 393.027,254.000 392.436,254.000 392.627 C 254.000 392.818,254.405 392.458,254.900 391.829 C 255.395 391.199,256.036 390.485,256.325 390.242 C 256.614 389.999,257.334 389.280,257.925 388.644 C 258.516 388.009,260.305 386.168,261.900 384.554 C 263.495 382.940,264.800 381.446,264.800 381.233 C 264.800 381.021,265.008 380.719,265.262 380.562 C 265.570 380.371,265.619 380.463,265.407 380.838 C 265.028 381.511,268.094 378.240,269.229 376.760 C 269.668 376.188,270.471 375.483,271.014 375.193 C 271.556 374.902,272.000 374.505,272.000 374.310 C 272.000 374.115,273.800 372.193,276.000 370.039 C 278.200 367.884,280.000 365.904,280.000 365.637 C 280.000 365.371,280.135 365.222,280.300 365.306 C 280.465 365.390,281.180 364.861,281.889 364.129 C 282.597 363.398,283.060 362.800,282.917 362.800 C 282.773 362.800,283.228 362.289,283.928 361.664 C 284.628 361.040,285.200 360.325,285.200 360.077 C 285.200 359.828,285.470 359.729,285.800 359.855 C 286.130 359.982,286.400 359.921,286.400 359.719 C 286.400 359.355,288.961 356.563,295.332 349.981 C 297.152 348.100,298.951 346.120,299.328 345.581 C 299.706 345.041,300.147 344.600,300.308 344.600 C 300.468 344.600,300.548 344.443,300.484 344.251 C 300.420 344.059,300.643 344.008,300.980 344.137 C 301.397 344.297,301.669 344.063,301.836 343.399 C 301.970 342.864,302.287 342.466,302.540 342.513 C 302.793 342.561,302.955 342.375,302.900 342.100 C 302.845 341.825,302.935 341.645,303.100 341.700 C 303.265 341.755,303.805 341.395,304.300 340.900 C 304.795 340.405,305.082 340.000,304.939 340.000 C 304.654 340.000,305.756 338.995,307.375 337.780 C 307.939 337.357,308.400 336.845,308.400 336.643 C 308.400 336.441,309.930 334.776,311.800 332.943 C 313.670 331.111,315.200 329.418,315.200 329.182 C 315.200 328.946,315.335 328.833,315.500 328.930 C 315.665 329.028,316.306 328.588,316.925 327.954 C 317.584 327.278,317.833 326.789,317.525 326.775 C 317.236 326.761,317.417 326.582,317.926 326.378 C 318.435 326.174,318.739 325.825,318.602 325.603 C 318.465 325.382,318.633 325.200,318.976 325.200 C 319.319 325.200,319.600 324.900,319.600 324.533 C 319.600 324.167,319.717 323.984,319.860 324.127 C 320.004 324.270,320.377 324.075,320.690 323.694 C 321.003 323.312,321.128 323.253,320.968 323.562 C 320.776 323.931,320.835 324.026,321.138 323.838 C 321.392 323.681,321.600 323.397,321.600 323.206 C 321.600 322.807,323.803 320.460,332.100 312.015 C 335.345 308.712,338.000 305.817,338.000 305.581 C 338.000 305.346,338.141 305.240,338.314 305.347 C 338.486 305.453,339.881 304.175,341.414 302.507 C 342.946 300.838,345.595 298.050,347.300 296.312 C 349.005 294.574,350.400 292.995,350.400 292.803 C 350.400 292.611,350.751 292.343,351.180 292.206 C 351.608 292.070,352.071 291.606,352.208 291.174 C 352.345 290.742,352.625 290.492,352.829 290.618 C 353.033 290.744,353.200 290.694,353.200 290.507 C 353.200 289.979,355.905 287.238,356.167 287.501 C 356.295 287.629,356.400 287.532,356.400 287.286 C 356.400 287.040,357.660 285.562,359.200 284.000 C 360.740 282.438,362.000 281.088,362.000 281.000 C 362.000 280.911,364.499 278.310,367.553 275.220 C 370.607 272.129,372.992 269.589,372.853 269.575 C 372.714 269.561,373.017 269.382,373.526 269.178 C 374.035 268.974,374.352 268.646,374.230 268.449 C 374.109 268.252,374.385 267.993,374.845 267.872 C 375.304 267.752,375.562 267.462,375.417 267.227 C 375.272 266.992,375.313 266.800,375.509 266.800 C 375.965 266.800,380.760 262.093,380.534 261.867 C 380.379 261.712,381.101 260.977,384.100 258.242 C 384.705 257.690,385.200 257.020,385.200 256.752 C 385.200 256.485,385.307 256.373,385.437 256.504 C 385.771 256.838,390.000 252.325,390.000 251.635 C 390.000 251.322,390.112 251.179,390.249 251.316 C 390.386 251.453,391.184 250.871,392.024 250.024 C 392.863 249.176,393.651 248.584,393.775 248.708 C 393.899 248.832,394.014 248.498,394.032 247.967 C 394.049 247.435,394.150 247.214,394.257 247.476 C 394.368 247.749,395.331 246.981,396.514 245.676 C 397.649 244.424,398.731 243.449,398.919 243.510 C 399.106 243.570,399.162 243.462,399.043 243.269 C 398.923 243.076,399.084 242.576,399.400 242.159 C 400.145 241.175,400.153 239.810,399.419 239.076 C 399.100 238.757,398.965 238.369,399.119 238.214 C 399.274 238.060,399.219 237.993,398.997 238.067 C 398.775 238.140,397.778 237.373,396.780 236.361 C 395.783 235.350,394.704 234.419,394.383 234.293 C 393.979 234.134,393.959 234.053,394.316 234.032 C 394.737 234.006,394.737 233.897,394.316 233.442 C 394.032 233.135,393.678 232.958,393.529 233.048 C 393.380 233.138,393.145 232.858,393.008 232.426 C 392.871 231.994,392.395 231.525,391.949 231.384 C 391.504 231.243,391.213 231.054,391.303 230.964 C 391.532 230.735,385.874 224.924,385.463 224.966 C 385.277 224.985,384.917 224.640,384.663 224.200 C 384.109 223.242,381.600 220.305,381.600 220.615 C 381.600 220.734,381.348 220.599,381.040 220.316 C 380.733 220.032,380.538 219.740,380.607 219.667 C 380.817 219.445,379.231 218.000,378.776 218.000 C 378.543 218.000,378.444 217.852,378.556 217.671 C 378.773 217.320,377.491 216.060,376.245 215.400 C 375.830 215.180,375.555 214.910,375.636 214.800 C 375.716 214.690,373.670 212.440,371.089 209.800 C 363.025 201.553,362.224 200.707,361.300 199.460 C 360.805 198.791,360.400 198.350,360.400 198.479 C 360.400 198.607,359.050 197.349,357.400 195.683 C 355.750 194.017,354.400 192.597,354.400 192.527 C 354.400 192.166,352.833 190.900,352.633 191.100 C 352.505 191.228,352.400 191.097,352.400 190.807 C 352.400 190.149,349.775 187.558,349.444 187.890 C 349.310 188.024,349.200 187.951,349.200 187.728 C 349.200 187.000,343.115 180.400,342.444 180.400 C 342.226 180.400,341.919 180.192,341.762 179.938 C 341.569 179.626,341.659 179.584,342.038 179.808 C 342.347 179.990,339.765 177.332,336.300 173.903 C 332.835 170.473,330.000 167.538,330.000 167.381 C 330.000 166.850,325.704 162.830,325.430 163.104 C 325.280 163.253,325.288 163.037,325.447 162.622 C 325.623 162.162,325.582 161.964,325.341 162.113 C 325.124 162.247,324.693 162.007,324.385 161.579 C 324.076 161.150,323.593 160.800,323.312 160.800 C 323.030 160.800,322.845 160.575,322.900 160.300 C 322.955 160.025,322.758 159.851,322.462 159.913 C 322.167 159.974,322.004 159.794,322.100 159.513 C 322.283 158.975,320.969 157.600,320.272 157.600 C 320.049 157.600,319.964 157.503,320.082 157.385 C 320.200 157.266,318.565 155.400,316.449 153.237 C 314.332 151.073,311.893 148.515,311.029 147.552 C 310.166 146.588,309.086 145.581,308.629 145.314 C 308.173 145.047,307.949 144.822,308.131 144.814 C 308.313 144.806,307.908 144.246,307.231 143.569 C 306.554 142.892,306.000 142.178,306.000 141.982 C 306.000 141.786,305.730 141.729,305.400 141.855 C 305.015 142.003,304.800 141.847,304.800 141.419 C 304.800 141.053,304.620 140.864,304.400 141.000 C 304.180 141.136,304.000 141.040,304.000 140.787 C 304.000 140.534,302.136 138.457,299.857 136.173 C 297.578 133.889,295.792 131.942,295.887 131.846 C 295.982 131.751,295.726 131.567,295.317 131.437 C 294.908 131.307,294.263 130.676,293.883 130.033 C 293.504 129.391,292.655 128.413,291.997 127.859 C 291.339 127.305,290.800 126.672,290.800 126.453 C 290.800 126.233,290.437 125.939,289.994 125.798 C 289.551 125.657,289.292 125.375,289.418 125.171 C 289.544 124.967,289.407 124.800,289.113 124.800 C 288.818 124.800,288.270 124.440,287.893 124.000 C 287.516 123.560,287.296 123.200,287.404 123.200 C 287.512 123.200,287.240 122.840,286.800 122.400 C 286.360 121.960,285.820 121.600,285.600 121.600 C 285.380 121.600,285.200 121.319,285.200 120.976 C 285.200 120.633,285.065 120.435,284.900 120.534 C 284.735 120.634,284.368 120.465,284.084 120.158 C 283.801 119.851,283.677 119.600,283.809 119.600 C 283.942 119.600,283.544 119.081,282.925 118.446 C 282.306 117.812,281.678 117.364,281.529 117.452 C 281.380 117.540,281.142 117.246,281.000 116.800 C 280.858 116.354,280.575 116.092,280.371 116.218 C 280.167 116.344,280.000 116.250,280.000 116.009 C 280.000 115.768,278.380 113.912,276.400 111.885 C 274.419 109.858,270.369 105.720,267.400 102.690 C 264.430 99.659,262.000 96.993,262.000 96.766 C 262.000 96.539,261.865 96.435,261.700 96.534 C 261.337 96.754,260.362 95.771,260.654 95.479 C 260.768 95.366,260.487 95.154,260.030 95.010 C 259.574 94.865,259.200 94.597,259.200 94.414 C 259.200 94.231,257.850 92.701,256.200 91.013 C 254.550 89.325,253.200 87.854,253.200 87.745 C 253.200 87.635,252.345 86.750,251.300 85.778 C 250.255 84.805,249.220 83.817,249.000 83.582 C 248.780 83.346,246.485 81.014,243.900 78.400 C 241.315 75.785,239.200 73.568,239.200 73.473 C 239.200 73.062,235.671 69.662,235.462 69.872 C 235.334 69.999,235.017 69.636,234.756 69.064 C 234.496 68.493,234.129 68.120,233.942 68.236 C 233.754 68.352,233.600 68.251,233.600 68.010 C 233.600 67.770,233.060 67.045,232.400 66.400 C 231.740 65.755,231.200 65.053,231.200 64.840 C 231.200 64.628,230.837 64.339,230.394 64.198 C 229.951 64.057,229.656 63.820,229.738 63.671 C 229.923 63.335,227.724 61.209,227.462 61.471 C 227.358 61.575,227.154 61.284,227.008 60.824 C 226.862 60.365,226.575 60.092,226.371 60.218 C 226.167 60.344,226.000 60.268,226.000 60.050 C 226.000 59.831,224.965 58.615,223.700 57.348 C 222.435 56.080,221.441 54.910,221.492 54.746 C 221.542 54.583,221.225 54.335,220.786 54.196 C 220.347 54.056,220.062 53.820,220.152 53.671 C 220.242 53.522,220.065 53.168,219.758 52.884 C 219.451 52.601,219.200 52.483,219.200 52.622 C 219.200 52.762,218.547 52.094,217.749 51.138 C 215.850 48.863,214.504 47.630,214.225 47.909 C 214.101 48.032,214.000 47.917,214.000 47.652 C 214.000 47.387,211.583 44.764,208.630 41.822 C 205.676 38.881,203.366 36.367,203.496 36.237 C 203.627 36.107,203.403 36.000,203.000 36.000 C 202.597 36.000,202.373 35.894,202.503 35.764 C 202.813 35.454,199.091 31.646,198.700 31.873 C 198.535 31.969,198.400 31.879,198.400 31.673 C 198.400 31.194,195.203 27.784,195.191 28.251 C 195.186 28.443,194.895 28.018,194.544 27.306 C 194.193 26.594,193.747 26.109,193.553 26.229 C 193.359 26.349,193.200 26.282,193.200 26.080 C 193.200 25.878,191.220 23.698,188.800 21.236 C 186.380 18.773,184.400 16.622,184.400 16.456 C 184.400 16.290,183.683 15.624,182.807 14.977 C 181.930 14.330,181.107 13.482,180.978 13.094 C 180.848 12.706,180.596 12.479,180.417 12.590 C 180.238 12.700,179.997 12.433,179.883 11.996 C 179.769 11.558,179.377 11.200,179.014 11.200 C 178.650 11.200,178.465 11.018,178.602 10.797 C 178.739 10.575,178.435 10.226,177.926 10.022 C 177.417 9.818,177.159 9.639,177.353 9.625 C 177.548 9.611,175.521 7.440,172.849 4.800 L 167.992 -0.000 83.996 -0.000 C 35.807 -0.000,0.000 0.150,0.000 0.353 " stroke="none" fill="#e4e43c" fill-rule="evenodd"></path><path id="path1" d="M0.657 1.108 C 0.552 1.278,0.991 1.905,1.633 2.502 C 2.275 3.099,2.800 3.423,2.800 3.223 C 2.800 3.022,2.356 2.509,1.814 2.082 C 1.271 1.655,0.941 1.192,1.080 1.053 C 1.219 0.914,1.224 0.800,1.090 0.800 C 0.957 0.800,0.761 0.939,0.657 1.108 M181.030 13.300 C 181.142 13.575,181.721 14.144,182.317 14.565 C 183.398 15.329,183.398 15.328,182.225 14.065 C 180.942 12.684,180.719 12.541,181.030 13.300 M14.025 15.000 C 14.025 15.220,14.290 15.749,14.613 16.176 C 14.936 16.604,15.200 16.773,15.200 16.553 C 15.200 16.333,14.936 15.804,14.613 15.376 C 14.290 14.949,14.025 14.780,14.025 15.000 M198.006 30.704 C 198.016 31.178,198.786 32.242,198.800 31.800 C 198.807 31.580,198.987 31.670,199.200 32.000 C 199.413 32.330,199.591 32.415,199.594 32.189 C 199.597 31.963,199.240 31.470,198.800 31.093 C 198.360 30.716,198.003 30.541,198.006 30.704 M46.400 48.711 C 46.400 48.916,46.850 49.569,47.400 50.162 C 47.950 50.756,48.400 51.123,48.400 50.978 C 48.400 50.834,47.950 50.181,47.400 49.527 C 46.850 48.873,46.400 48.506,46.400 48.711 M233.267 67.387 C 233.515 67.931,233.864 68.284,234.043 68.174 C 234.222 68.063,234.066 67.619,233.695 67.186 C 232.811 66.153,232.723 66.194,233.267 67.387 M234.805 69.209 C 235.301 70.136,235.600 70.224,235.600 69.443 C 235.600 69.136,235.326 68.780,234.991 68.652 C 234.494 68.461,234.459 68.564,234.805 69.209 M69.500 72.665 C 69.775 72.776,70.000 73.122,70.000 73.433 C 70.000 73.745,70.186 74.000,70.414 74.000 C 70.695 74.000,70.690 73.742,70.400 73.200 C 70.165 72.760,69.753 72.414,69.486 72.432 C 69.120 72.455,69.123 72.513,69.500 72.665 M239.200 73.551 C 239.200 73.744,239.456 74.114,239.769 74.374 C 240.235 74.761,240.298 74.698,240.122 74.023 C 239.912 73.219,239.200 72.855,239.200 73.551 M253.200 87.836 C 253.200 87.970,253.740 88.583,254.400 89.200 C 255.060 89.817,255.600 90.189,255.600 90.027 C 255.600 89.865,255.060 89.251,254.400 88.663 C 253.740 88.075,253.200 87.703,253.200 87.836 M266.400 101.725 C 266.400 101.794,266.940 102.368,267.600 103.000 C 269.055 104.394,269.217 104.054,267.782 102.618 C 266.852 101.688,266.400 101.396,266.400 101.725 M272.783 108.200 C 273.380 109.020,275.215 110.800,275.462 110.800 C 275.920 110.800,274.379 109.054,272.990 108.000 C 272.240 107.431,272.230 107.441,272.783 108.200 M128.800 134.578 C 129.695 135.737,133.222 139.200,133.508 139.200 C 133.731 139.200,133.226 138.615,130.564 135.788 C 129.320 134.466,128.033 133.583,128.800 134.578 M144.400 150.758 C 144.400 150.904,145.030 151.618,145.800 152.344 C 146.570 153.071,147.200 153.528,147.200 153.361 C 147.200 153.194,146.570 152.480,145.800 151.774 C 145.030 151.069,144.400 150.612,144.400 150.758 M159.878 166.777 C 159.996 167.230,160.252 167.600,160.447 167.600 C 160.986 167.600,160.868 166.954,160.231 166.426 C 159.765 166.039,159.702 166.102,159.878 166.777 M333.000 170.800 C 333.398 171.240,333.876 171.600,334.062 171.600 C 334.248 171.600,334.040 171.240,333.600 170.800 C 333.160 170.360,332.682 170.000,332.538 170.000 C 332.394 170.000,332.602 170.360,333.000 170.800 M165.908 172.646 C 165.795 172.841,166.021 173.327,166.411 173.727 C 166.970 174.302,167.183 174.344,167.424 173.927 C 167.591 173.637,167.574 173.541,167.385 173.713 C 167.196 173.884,166.833 173.635,166.578 173.159 C 166.323 172.682,166.021 172.451,165.908 172.646 M197.200 205.419 C 197.200 205.694,199.240 207.600,199.533 207.600 C 199.652 207.600,199.232 207.060,198.600 206.400 C 197.439 205.188,197.200 205.021,197.200 205.419 M208.400 217.325 C 208.400 217.394,208.985 217.979,209.700 218.625 L 211.000 219.800 209.825 218.500 C 208.730 217.288,208.400 217.016,208.400 217.325 M213.275 222.248 C 213.647 222.358,214.042 222.753,214.152 223.125 C 214.299 223.614,214.332 223.581,214.272 223.005 C 214.225 222.538,213.862 222.175,213.395 222.128 C 212.819 222.068,212.786 222.101,213.275 222.248 M208.834 263.753 L 207.869 265.000 209.013 263.912 C 209.643 263.314,210.077 262.753,209.979 262.665 C 209.880 262.577,209.365 263.067,208.834 263.753 M193.861 279.378 C 193.281 279.916,192.940 280.433,193.103 280.526 C 193.266 280.620,193.819 280.179,194.330 279.548 C 195.470 278.142,195.272 278.071,193.861 279.378 M161.875 312.420 C 161.107 313.318,161.463 313.430,162.524 312.626 C 162.922 312.324,163.089 311.979,162.895 311.859 C 162.701 311.739,162.242 311.992,161.875 312.420 M329.600 314.200 C 329.083 314.750,328.756 315.200,328.872 315.200 C 328.988 315.200,329.569 314.750,330.162 314.200 C 330.756 313.650,331.083 313.200,330.890 313.200 C 330.697 313.200,330.117 313.650,329.600 314.200 M140.811 334.187 C 140.543 334.509,140.417 335.004,140.531 335.287 C 140.663 335.617,140.748 335.558,140.768 335.120 C 140.786 334.746,141.115 334.256,141.500 334.032 C 141.885 333.808,141.997 333.619,141.749 333.612 C 141.501 333.605,141.079 333.864,140.811 334.187 M299.252 345.665 C 298.594 346.719,298.814 346.862,299.685 345.948 C 300.062 345.553,300.233 345.144,300.065 345.040 C 299.898 344.937,299.532 345.218,299.252 345.665 M125.861 349.819 C 124.526 351.116,124.166 351.600,124.538 351.600 C 124.760 351.600,126.587 349.862,127.166 349.100 C 128.028 347.966,127.431 348.295,125.861 349.819 M270.165 375.900 C 268.553 377.403,267.448 378.870,268.583 378.000 C 269.917 376.977,271.916 374.800,271.521 374.800 C 271.424 374.800,270.813 375.295,270.165 375.900 M99.600 377.367 C 99.600 377.678,99.375 378.024,99.100 378.135 C 98.723 378.287,98.720 378.345,99.086 378.368 C 99.353 378.386,99.765 378.040,100.000 377.600 C 100.290 377.058,100.295 376.800,100.014 376.800 C 99.786 376.800,99.600 377.055,99.600 377.367 M253.252 393.265 C 252.575 394.350,252.874 394.573,253.706 393.602 C 254.070 393.176,254.232 392.743,254.064 392.640 C 253.897 392.536,253.532 392.818,253.252 393.265 M65.600 412.649 C 65.600 413.180,65.709 413.208,66.200 412.800 C 66.530 412.526,66.800 412.234,66.800 412.151 C 66.800 412.068,66.530 412.000,66.200 412.000 C 65.870 412.000,65.600 412.292,65.600 412.649 M229.133 418.187 C 228.885 418.731,228.502 419.063,228.280 418.926 C 228.043 418.779,228.001 418.878,228.179 419.166 C 228.501 419.687,230.051 418.469,229.746 417.934 C 229.663 417.788,229.821 417.577,230.098 417.466 C 230.497 417.305,230.495 417.257,230.091 417.232 C 229.812 417.214,229.380 417.644,229.133 418.187 M194.300 454.385 C 193.282 455.377,193.440 455.780,194.471 454.820 C 194.950 454.374,195.265 453.940,195.171 453.856 C 195.077 453.772,194.685 454.010,194.300 454.385 M192.070 456.526 C 191.591 457.035,191.200 457.584,191.200 457.746 C 191.200 457.909,191.650 457.556,192.200 456.962 C 192.750 456.369,193.200 455.819,193.200 455.742 C 193.200 455.433,192.902 455.640,192.070 456.526 M181.006 468.288 L 180.304 469.400 181.230 468.511 C 181.739 468.022,182.055 467.522,181.932 467.399 C 181.809 467.276,181.392 467.676,181.006 468.288 " stroke="none" fill="#e8e43c" fill-rule="evenodd"></path><path id="path2" d="M0.657 1.108 C 0.552 1.278,0.991 1.905,1.633 2.502 C 2.275 3.099,2.800 3.423,2.800 3.223 C 2.800 3.022,2.356 2.509,1.814 2.082 C 1.271 1.655,0.941 1.192,1.080 1.053 C 1.219 0.914,1.224 0.800,1.090 0.800 C 0.957 0.800,0.761 0.939,0.657 1.108 M181.030 13.300 C 181.142 13.575,181.721 14.144,182.317 14.565 C 183.398 15.329,183.398 15.328,182.225 14.065 C 180.942 12.684,180.719 12.541,181.030 13.300 M14.025 15.000 C 14.025 15.220,14.290 15.749,14.613 16.176 C 14.936 16.604,15.200 16.773,15.200 16.553 C 15.200 16.333,14.936 15.804,14.613 15.376 C 14.290 14.949,14.025 14.780,14.025 15.000 M198.006 30.704 C 198.016 31.178,198.786 32.242,198.800 31.800 C 198.807 31.580,198.987 31.670,199.200 32.000 C 199.413 32.330,199.591 32.415,199.594 32.189 C 199.597 31.963,199.240 31.470,198.800 31.093 C 198.360 30.716,198.003 30.541,198.006 30.704 M46.400 48.711 C 46.400 48.916,46.850 49.569,47.400 50.162 C 47.950 50.756,48.400 51.123,48.400 50.978 C 48.400 50.834,47.950 50.181,47.400 49.527 C 46.850 48.873,46.400 48.506,46.400 48.711 M233.267 67.387 C 233.515 67.931,233.864 68.284,234.043 68.174 C 234.222 68.063,234.066 67.619,233.695 67.186 C 232.811 66.153,232.723 66.194,233.267 67.387 M234.805 69.209 C 235.301 70.136,235.600 70.224,235.600 69.443 C 235.600 69.136,235.326 68.780,234.991 68.652 C 234.494 68.461,234.459 68.564,234.805 69.209 M69.500 72.665 C 69.775 72.776,70.000 73.122,70.000 73.433 C 70.000 73.745,70.186 74.000,70.414 74.000 C 70.695 74.000,70.690 73.742,70.400 73.200 C 70.165 72.760,69.753 72.414,69.486 72.432 C 69.120 72.455,69.123 72.513,69.500 72.665 M239.200 73.551 C 239.200 73.744,239.456 74.114,239.769 74.374 C 240.235 74.761,240.298 74.698,240.122 74.023 C 239.912 73.219,239.200 72.855,239.200 73.551 M253.200 87.836 C 253.200 87.970,253.740 88.583,254.400 89.200 C 255.060 89.817,255.600 90.189,255.600 90.027 C 255.600 89.865,255.060 89.251,254.400 88.663 C 253.740 88.075,253.200 87.703,253.200 87.836 M266.400 101.725 C 266.400 101.794,266.940 102.368,267.600 103.000 C 269.055 104.394,269.217 104.054,267.782 102.618 C 266.852 101.688,266.400 101.396,266.400 101.725 M272.783 108.200 C 273.380 109.020,275.215 110.800,275.462 110.800 C 275.920 110.800,274.379 109.054,272.990 108.000 C 272.240 107.431,272.230 107.441,272.783 108.200 M128.800 134.578 C 129.695 135.737,133.222 139.200,133.508 139.200 C 133.731 139.200,133.226 138.615,130.564 135.788 C 129.320 134.466,128.033 133.583,128.800 134.578 M144.400 150.758 C 144.400 150.904,145.030 151.618,145.800 152.344 C 146.570 153.071,147.200 153.528,147.200 153.361 C 147.200 153.194,146.570 152.480,145.800 151.774 C 145.030 151.069,144.400 150.612,144.400 150.758 M159.878 166.777 C 159.996 167.230,160.252 167.600,160.447 167.600 C 160.986 167.600,160.868 166.954,160.231 166.426 C 159.765 166.039,159.702 166.102,159.878 166.777 M333.000 170.800 C 333.398 171.240,333.876 171.600,334.062 171.600 C 334.248 171.600,334.040 171.240,333.600 170.800 C 333.160 170.360,332.682 170.000,332.538 170.000 C 332.394 170.000,332.602 170.360,333.000 170.800 M165.908 172.646 C 165.795 172.841,166.021 173.327,166.411 173.727 C 166.970 174.302,167.183 174.344,167.424 173.927 C 167.591 173.637,167.574 173.541,167.385 173.713 C 167.196 173.884,166.833 173.635,166.578 173.159 C 166.323 172.682,166.021 172.451,165.908 172.646 M197.200 205.419 C 197.200 205.694,199.240 207.600,199.533 207.600 C 199.652 207.600,199.232 207.060,198.600 206.400 C 197.439 205.188,197.200 205.021,197.200 205.419 M208.400 217.325 C 208.400 217.394,208.985 217.979,209.700 218.625 L 211.000 219.800 209.825 218.500 C 208.730 217.288,208.400 217.016,208.400 217.325 M213.275 222.248 C 213.647 222.358,214.042 222.753,214.152 223.125 C 214.299 223.614,214.332 223.581,214.272 223.005 C 214.225 222.538,213.862 222.175,213.395 222.128 C 212.819 222.068,212.786 222.101,213.275 222.248 M208.834 263.753 L 207.869 265.000 209.013 263.912 C 209.643 263.314,210.077 262.753,209.979 262.665 C 209.880 262.577,209.365 263.067,208.834 263.753 M193.861 279.378 C 193.281 279.916,192.940 280.433,193.103 280.526 C 193.266 280.620,193.819 280.179,194.330 279.548 C 195.470 278.142,195.272 278.071,193.861 279.378 M161.875 312.420 C 161.107 313.318,161.463 313.430,162.524 312.626 C 162.922 312.324,163.089 311.979,162.895 311.859 C 162.701 311.739,162.242 311.992,161.875 312.420 M329.600 314.200 C 329.083 314.750,328.756 315.200,328.872 315.200 C 328.988 315.200,329.569 314.750,330.162 314.200 C 330.756 313.650,331.083 313.200,330.890 313.200 C 330.697 313.200,330.117 313.650,329.600 314.200 M140.811 334.187 C 140.543 334.509,140.417 335.004,140.531 335.287 C 140.663 335.617,140.748 335.558,140.768 335.120 C 140.786 334.746,141.115 334.256,141.500 334.032 C 141.885 333.808,141.997 333.619,141.749 333.612 C 141.501 333.605,141.079 333.864,140.811 334.187 M299.252 345.665 C 298.594 346.719,298.814 346.862,299.685 345.948 C 300.062 345.553,300.233 345.144,300.065 345.040 C 299.898 344.937,299.532 345.218,299.252 345.665 M125.861 349.819 C 124.526 351.116,124.166 351.600,124.538 351.600 C 124.760 351.600,126.587 349.862,127.166 349.100 C 128.028 347.966,127.431 348.295,125.861 349.819 M270.165 375.900 C 268.553 377.403,267.448 378.870,268.583 378.000 C 269.917 376.977,271.916 374.800,271.521 374.800 C 271.424 374.800,270.813 375.295,270.165 375.900 M99.600 377.367 C 99.600 377.678,99.375 378.024,99.100 378.135 C 98.723 378.287,98.720 378.345,99.086 378.368 C 99.353 378.386,99.765 378.040,100.000 377.600 C 100.290 377.058,100.295 376.800,100.014 376.800 C 99.786 376.800,99.600 377.055,99.600 377.367 M253.252 393.265 C 252.575 394.350,252.874 394.573,253.706 393.602 C 254.070 393.176,254.232 392.743,254.064 392.640 C 253.897 392.536,253.532 392.818,253.252 393.265 M65.600 412.649 C 65.600 413.180,65.709 413.208,66.200 412.800 C 66.530 412.526,66.800 412.234,66.800 412.151 C 66.800 412.068,66.530 412.000,66.200 412.000 C 65.870 412.000,65.600 412.292,65.600 412.649 M229.133 418.187 C 228.885 418.731,228.502 419.063,228.280 418.926 C 228.043 418.779,228.001 418.878,228.179 419.166 C 228.501 419.687,230.051 418.469,229.746 417.934 C 229.663 417.788,229.821 417.577,230.098 417.466 C 230.497 417.305,230.495 417.257,230.091 417.232 C 229.812 417.214,229.380 417.644,229.133 418.187 M194.300 454.385 C 193.282 455.377,193.440 455.780,194.471 454.820 C 194.950 454.374,195.265 453.940,195.171 453.856 C 195.077 453.772,194.685 454.010,194.300 454.385 M192.070 456.526 C 191.591 457.035,191.200 457.584,191.200 457.746 C 191.200 457.909,191.650 457.556,192.200 456.962 C 192.750 456.369,193.200 455.819,193.200 455.742 C 193.200 455.433,192.902 455.640,192.070 456.526 M181.006 468.288 L 180.304 469.400 181.230 468.511 C 181.739 468.022,182.055 467.522,181.932 467.399 C 181.809 467.276,181.392 467.676,181.006 468.288 " stroke="none" fill="#e8e43c" fill-rule="evenodd"></path><path id="path3" d="M0.657 1.108 C 0.552 1.278,0.991 1.905,1.633 2.502 C 2.275 3.099,2.800 3.423,2.800 3.223 C 2.800 3.022,2.356 2.509,1.814 2.082 C 1.271 1.655,0.941 1.192,1.080 1.053 C 1.219 0.914,1.224 0.800,1.090 0.800 C 0.957 0.800,0.761 0.939,0.657 1.108 M181.030 13.300 C 181.142 13.575,181.721 14.144,182.317 14.565 C 183.398 15.329,183.398 15.328,182.225 14.065 C 180.942 12.684,180.719 12.541,181.030 13.300 M14.025 15.000 C 14.025 15.220,14.290 15.749,14.613 16.176 C 14.936 16.604,15.200 16.773,15.200 16.553 C 15.200 16.333,14.936 15.804,14.613 15.376 C 14.290 14.949,14.025 14.780,14.025 15.000 M198.006 30.704 C 198.016 31.178,198.786 32.242,198.800 31.800 C 198.807 31.580,198.987 31.670,199.200 32.000 C 199.413 32.330,199.591 32.415,199.594 32.189 C 199.597 31.963,199.240 31.470,198.800 31.093 C 198.360 30.716,198.003 30.541,198.006 30.704 M46.400 48.711 C 46.400 48.916,46.850 49.569,47.400 50.162 C 47.950 50.756,48.400 51.123,48.400 50.978 C 48.400 50.834,47.950 50.181,47.400 49.527 C 46.850 48.873,46.400 48.506,46.400 48.711 M233.267 67.387 C 233.515 67.931,233.864 68.284,234.043 68.174 C 234.222 68.063,234.066 67.619,233.695 67.186 C 232.811 66.153,232.723 66.194,233.267 67.387 M234.805 69.209 C 235.301 70.136,235.600 70.224,235.600 69.443 C 235.600 69.136,235.326 68.780,234.991 68.652 C 234.494 68.461,234.459 68.564,234.805 69.209 M69.500 72.665 C 69.775 72.776,70.000 73.122,70.000 73.433 C 70.000 73.745,70.186 74.000,70.414 74.000 C 70.695 74.000,70.690 73.742,70.400 73.200 C 70.165 72.760,69.753 72.414,69.486 72.432 C 69.120 72.455,69.123 72.513,69.500 72.665 M239.200 73.551 C 239.200 73.744,239.456 74.114,239.769 74.374 C 240.235 74.761,240.298 74.698,240.122 74.023 C 239.912 73.219,239.200 72.855,239.200 73.551 M253.200 87.836 C 253.200 87.970,253.740 88.583,254.400 89.200 C 255.060 89.817,255.600 90.189,255.600 90.027 C 255.600 89.865,255.060 89.251,254.400 88.663 C 253.740 88.075,253.200 87.703,253.200 87.836 M266.400 101.725 C 266.400 101.794,266.940 102.368,267.600 103.000 C 269.055 104.394,269.217 104.054,267.782 102.618 C 266.852 101.688,266.400 101.396,266.400 101.725 M272.783 108.200 C 273.380 109.020,275.215 110.800,275.462 110.800 C 275.920 110.800,274.379 109.054,272.990 108.000 C 272.240 107.431,272.230 107.441,272.783 108.200 M128.800 134.578 C 129.695 135.737,133.222 139.200,133.508 139.200 C 133.731 139.200,133.226 138.615,130.564 135.788 C 129.320 134.466,128.033 133.583,128.800 134.578 M144.400 150.758 C 144.400 150.904,145.030 151.618,145.800 152.344 C 146.570 153.071,147.200 153.528,147.200 153.361 C 147.200 153.194,146.570 152.480,145.800 151.774 C 145.030 151.069,144.400 150.612,144.400 150.758 M159.878 166.777 C 159.996 167.230,160.252 167.600,160.447 167.600 C 160.986 167.600,160.868 166.954,160.231 166.426 C 159.765 166.039,159.702 166.102,159.878 166.777 M333.000 170.800 C 333.398 171.240,333.876 171.600,334.062 171.600 C 334.248 171.600,334.040 171.240,333.600 170.800 C 333.160 170.360,332.682 170.000,332.538 170.000 C 332.394 170.000,332.602 170.360,333.000 170.800 M165.908 172.646 C 165.795 172.841,166.021 173.327,166.411 173.727 C 166.970 174.302,167.183 174.344,167.424 173.927 C 167.591 173.637,167.574 173.541,167.385 173.713 C 167.196 173.884,166.833 173.635,166.578 173.159 C 166.323 172.682,166.021 172.451,165.908 172.646 M197.200 205.419 C 197.200 205.694,199.240 207.600,199.533 207.600 C 199.652 207.600,199.232 207.060,198.600 206.400 C 197.439 205.188,197.200 205.021,197.200 205.419 M208.400 217.325 C 208.400 217.394,208.985 217.979,209.700 218.625 L 211.000 219.800 209.825 218.500 C 208.730 217.288,208.400 217.016,208.400 217.325 M213.275 222.248 C 213.647 222.358,214.042 222.753,214.152 223.125 C 214.299 223.614,214.332 223.581,214.272 223.005 C 214.225 222.538,213.862 222.175,213.395 222.128 C 212.819 222.068,212.786 222.101,213.275 222.248 M208.834 263.753 L 207.869 265.000 209.013 263.912 C 209.643 263.314,210.077 262.753,209.979 262.665 C 209.880 262.577,209.365 263.067,208.834 263.753 M193.861 279.378 C 193.281 279.916,192.940 280.433,193.103 280.526 C 193.266 280.620,193.819 280.179,194.330 279.548 C 195.470 278.142,195.272 278.071,193.861 279.378 M161.875 312.420 C 161.107 313.318,161.463 313.430,162.524 312.626 C 162.922 312.324,163.089 311.979,162.895 311.859 C 162.701 311.739,162.242 311.992,161.875 312.420 M329.600 314.200 C 329.083 314.750,328.756 315.200,328.872 315.200 C 328.988 315.200,329.569 314.750,330.162 314.200 C 330.756 313.650,331.083 313.200,330.890 313.200 C 330.697 313.200,330.117 313.650,329.600 314.200 M140.811 334.187 C 140.543 334.509,140.417 335.004,140.531 335.287 C 140.663 335.617,140.748 335.558,140.768 335.120 C 140.786 334.746,141.115 334.256,141.500 334.032 C 141.885 333.808,141.997 333.619,141.749 333.612 C 141.501 333.605,141.079 333.864,140.811 334.187 M299.252 345.665 C 298.594 346.719,298.814 346.862,299.685 345.948 C 300.062 345.553,300.233 345.144,300.065 345.040 C 299.898 344.937,299.532 345.218,299.252 345.665 M125.861 349.819 C 124.526 351.116,124.166 351.600,124.538 351.600 C 124.760 351.600,126.587 349.862,127.166 349.100 C 128.028 347.966,127.431 348.295,125.861 349.819 M270.165 375.900 C 268.553 377.403,267.448 378.870,268.583 378.000 C 269.917 376.977,271.916 374.800,271.521 374.800 C 271.424 374.800,270.813 375.295,270.165 375.900 M99.600 377.367 C 99.600 377.678,99.375 378.024,99.100 378.135 C 98.723 378.287,98.720 378.345,99.086 378.368 C 99.353 378.386,99.765 378.040,100.000 377.600 C 100.290 377.058,100.295 376.800,100.014 376.800 C 99.786 376.800,99.600 377.055,99.600 377.367 M253.252 393.265 C 252.575 394.350,252.874 394.573,253.706 393.602 C 254.070 393.176,254.232 392.743,254.064 392.640 C 253.897 392.536,253.532 392.818,253.252 393.265 M65.600 412.649 C 65.600 413.180,65.709 413.208,66.200 412.800 C 66.530 412.526,66.800 412.234,66.800 412.151 C 66.800 412.068,66.530 412.000,66.200 412.000 C 65.870 412.000,65.600 412.292,65.600 412.649 M229.133 418.187 C 228.885 418.731,228.502 419.063,228.280 418.926 C 228.043 418.779,228.001 418.878,228.179 419.166 C 228.501 419.687,230.051 418.469,229.746 417.934 C 229.663 417.788,229.821 417.577,230.098 417.466 C 230.497 417.305,230.495 417.257,230.091 417.232 C 229.812 417.214,229.380 417.644,229.133 418.187 M194.300 454.385 C 193.282 455.377,193.440 455.780,194.471 454.820 C 194.950 454.374,195.265 453.940,195.171 453.856 C 195.077 453.772,194.685 454.010,194.300 454.385 M192.070 456.526 C 191.591 457.035,191.200 457.584,191.200 457.746 C 191.200 457.909,191.650 457.556,192.200 456.962 C 192.750 456.369,193.200 455.819,193.200 455.742 C 193.200 455.433,192.902 455.640,192.070 456.526 M181.006 468.288 L 180.304 469.400 181.230 468.511 C 181.739 468.022,182.055 467.522,181.932 467.399 C 181.809 467.276,181.392 467.676,181.006 468.288 " stroke="none" fill="#e8e43c" fill-rule="evenodd"></path><path id="path4" d="M0.657 1.108 C 0.552 1.278,0.991 1.905,1.633 2.502 C 2.275 3.099,2.800 3.423,2.800 3.223 C 2.800 3.022,2.356 2.509,1.814 2.082 C 1.271 1.655,0.941 1.192,1.080 1.053 C 1.219 0.914,1.224 0.800,1.090 0.800 C 0.957 0.800,0.761 0.939,0.657 1.108 M181.030 13.300 C 181.142 13.575,181.721 14.144,182.317 14.565 C 183.398 15.329,183.398 15.328,182.225 14.065 C 180.942 12.684,180.719 12.541,181.030 13.300 M14.025 15.000 C 14.025 15.220,14.290 15.749,14.613 16.176 C 14.936 16.604,15.200 16.773,15.200 16.553 C 15.200 16.333,14.936 15.804,14.613 15.376 C 14.290 14.949,14.025 14.780,14.025 15.000 M198.006 30.704 C 198.016 31.178,198.786 32.242,198.800 31.800 C 198.807 31.580,198.987 31.670,199.200 32.000 C 199.413 32.330,199.591 32.415,199.594 32.189 C 199.597 31.963,199.240 31.470,198.800 31.093 C 198.360 30.716,198.003 30.541,198.006 30.704 M46.400 48.711 C 46.400 48.916,46.850 49.569,47.400 50.162 C 47.950 50.756,48.400 51.123,48.400 50.978 C 48.400 50.834,47.950 50.181,47.400 49.527 C 46.850 48.873,46.400 48.506,46.400 48.711 M233.267 67.387 C 233.515 67.931,233.864 68.284,234.043 68.174 C 234.222 68.063,234.066 67.619,233.695 67.186 C 232.811 66.153,232.723 66.194,233.267 67.387 M234.805 69.209 C 235.301 70.136,235.600 70.224,235.600 69.443 C 235.600 69.136,235.326 68.780,234.991 68.652 C 234.494 68.461,234.459 68.564,234.805 69.209 M69.500 72.665 C 69.775 72.776,70.000 73.122,70.000 73.433 C 70.000 73.745,70.186 74.000,70.414 74.000 C 70.695 74.000,70.690 73.742,70.400 73.200 C 70.165 72.760,69.753 72.414,69.486 72.432 C 69.120 72.455,69.123 72.513,69.500 72.665 M239.200 73.551 C 239.200 73.744,239.456 74.114,239.769 74.374 C 240.235 74.761,240.298 74.698,240.122 74.023 C 239.912 73.219,239.200 72.855,239.200 73.551 M253.200 87.836 C 253.200 87.970,253.740 88.583,254.400 89.200 C 255.060 89.817,255.600 90.189,255.600 90.027 C 255.600 89.865,255.060 89.251,254.400 88.663 C 253.740 88.075,253.200 87.703,253.200 87.836 M266.400 101.725 C 266.400 101.794,266.940 102.368,267.600 103.000 C 269.055 104.394,269.217 104.054,267.782 102.618 C 266.852 101.688,266.400 101.396,266.400 101.725 M272.783 108.200 C 273.380 109.020,275.215 110.800,275.462 110.800 C 275.920 110.800,274.379 109.054,272.990 108.000 C 272.240 107.431,272.230 107.441,272.783 108.200 M128.800 134.578 C 129.695 135.737,133.222 139.200,133.508 139.200 C 133.731 139.200,133.226 138.615,130.564 135.788 C 129.320 134.466,128.033 133.583,128.800 134.578 M144.400 150.758 C 144.400 150.904,145.030 151.618,145.800 152.344 C 146.570 153.071,147.200 153.528,147.200 153.361 C 147.200 153.194,146.570 152.480,145.800 151.774 C 145.030 151.069,144.400 150.612,144.400 150.758 M159.878 166.777 C 159.996 167.230,160.252 167.600,160.447 167.600 C 160.986 167.600,160.868 166.954,160.231 166.426 C 159.765 166.039,159.702 166.102,159.878 166.777 M333.000 170.800 C 333.398 171.240,333.876 171.600,334.062 171.600 C 334.248 171.600,334.040 171.240,333.600 170.800 C 333.160 170.360,332.682 170.000,332.538 170.000 C 332.394 170.000,332.602 170.360,333.000 170.800 M165.908 172.646 C 165.795 172.841,166.021 173.327,166.411 173.727 C 166.970 174.302,167.183 174.344,167.424 173.927 C 167.591 173.637,167.574 173.541,167.385 173.713 C 167.196 173.884,166.833 173.635,166.578 173.159 C 166.323 172.682,166.021 172.451,165.908 172.646 M197.200 205.419 C 197.200 205.694,199.240 207.600,199.533 207.600 C 199.652 207.600,199.232 207.060,198.600 206.400 C 197.439 205.188,197.200 205.021,197.200 205.419 M208.400 217.325 C 208.400 217.394,208.985 217.979,209.700 218.625 L 211.000 219.800 209.825 218.500 C 208.730 217.288,208.400 217.016,208.400 217.325 M213.275 222.248 C 213.647 222.358,214.042 222.753,214.152 223.125 C 214.299 223.614,214.332 223.581,214.272 223.005 C 214.225 222.538,213.862 222.175,213.395 222.128 C 212.819 222.068,212.786 222.101,213.275 222.248 M208.834 263.753 L 207.869 265.000 209.013 263.912 C 209.643 263.314,210.077 262.753,209.979 262.665 C 209.880 262.577,209.365 263.067,208.834 263.753 M193.861 279.378 C 193.281 279.916,192.940 280.433,193.103 280.526 C 193.266 280.620,193.819 280.179,194.330 279.548 C 195.470 278.142,195.272 278.071,193.861 279.378 M161.875 312.420 C 161.107 313.318,161.463 313.430,162.524 312.626 C 162.922 312.324,163.089 311.979,162.895 311.859 C 162.701 311.739,162.242 311.992,161.875 312.420 M329.600 314.200 C 329.083 314.750,328.756 315.200,328.872 315.200 C 328.988 315.200,329.569 314.750,330.162 314.200 C 330.756 313.650,331.083 313.200,330.890 313.200 C 330.697 313.200,330.117 313.650,329.600 314.200 M140.811 334.187 C 140.543 334.509,140.417 335.004,140.531 335.287 C 140.663 335.617,140.748 335.558,140.768 335.120 C 140.786 334.746,141.115 334.256,141.500 334.032 C 141.885 333.808,141.997 333.619,141.749 333.612 C 141.501 333.605,141.079 333.864,140.811 334.187 M299.252 345.665 C 298.594 346.719,298.814 346.862,299.685 345.948 C 300.062 345.553,300.233 345.144,300.065 345.040 C 299.898 344.937,299.532 345.218,299.252 345.665 M125.861 349.819 C 124.526 351.116,124.166 351.600,124.538 351.600 C 124.760 351.600,126.587 349.862,127.166 349.100 C 128.028 347.966,127.431 348.295,125.861 349.819 M270.165 375.900 C 268.553 377.403,267.448 378.870,268.583 378.000 C 269.917 376.977,271.916 374.800,271.521 374.800 C 271.424 374.800,270.813 375.295,270.165 375.900 M99.600 377.367 C 99.600 377.678,99.375 378.024,99.100 378.135 C 98.723 378.287,98.720 378.345,99.086 378.368 C 99.353 378.386,99.765 378.040,100.000 377.600 C 100.290 377.058,100.295 376.800,100.014 376.800 C 99.786 376.800,99.600 377.055,99.600 377.367 M253.252 393.265 C 252.575 394.350,252.874 394.573,253.706 393.602 C 254.070 393.176,254.232 392.743,254.064 392.640 C 253.897 392.536,253.532 392.818,253.252 393.265 M65.600 412.649 C 65.600 413.180,65.709 413.208,66.200 412.800 C 66.530 412.526,66.800 412.234,66.800 412.151 C 66.800 412.068,66.530 412.000,66.200 412.000 C 65.870 412.000,65.600 412.292,65.600 412.649 M229.133 418.187 C 228.885 418.731,228.502 419.063,228.280 418.926 C 228.043 418.779,228.001 418.878,228.179 419.166 C 228.501 419.687,230.051 418.469,229.746 417.934 C 229.663 417.788,229.821 417.577,230.098 417.466 C 230.497 417.305,230.495 417.257,230.091 417.232 C 229.812 417.214,229.380 417.644,229.133 418.187 M194.300 454.385 C 193.282 455.377,193.440 455.780,194.471 454.820 C 194.950 454.374,195.265 453.940,195.171 453.856 C 195.077 453.772,194.685 454.010,194.300 454.385 M192.070 456.526 C 191.591 457.035,191.200 457.584,191.200 457.746 C 191.200 457.909,191.650 457.556,192.200 456.962 C 192.750 456.369,193.200 455.819,193.200 455.742 C 193.200 455.433,192.902 455.640,192.070 456.526 M181.006 468.288 L 180.304 469.400 181.230 468.511 C 181.739 468.022,182.055 467.522,181.932 467.399 C 181.809 467.276,181.392 467.676,181.006 468.288 " stroke="none" fill="#e8e43c" fill-rule="evenodd"></path></g></svg>